AmstelvarAlpha-srfr0-cntr8.ufo
<glyph name="numbersign" format="1">
  <advance width="1324"/>
  <unicode hex="0023"/>
  <outline>
    <contour>
      <point x="20" y="456" type="line"/>
      <point x="20" y="628" type="line"/>
      <point x="1199" y="628" type="line"/>
      <point x="1199" y="456" type="line"/>
    </contour>
    <contour>
      <point x="125" y="856" type="line"/>
      <point x="125" y="1028" type="line"/>
      <point x="1304" y="1028" type="line"/>
      <point x="1304" y="856" type="line"/>
    </contour>
    <contour>
      <point x="136" y="-71" type="line"/>
      <point x="727" y="1535" type="line"/>
      <point x="738" y="1532" type="line"/>
      <point x="147" y="-74" type="line"/>
    </contour>
    <contour>
      <point x="595" y="-71" type="line"/>
      <point x="1186" y="1535" type="line"/>
      <point x="1197" y="1532" type="line"/>
      <point x="606" y="-74" type="line"/>
    </contour>
  </outline>
</glyph>
<glyph name="parenleft" format="1">
  <advance width="578"/>
  <unicode hex="0028"/>
  <outline>
    <contour>
      <point x="68" y="672" type="qcurve" smooth="yes"/>
      <point x="68" y="930"/>
      <point x="380" y="1384"/>
      <point x="538" y="1500" type="qcurve"/>
      <point x="540" y="1498" type="line"/>
      <point x="416" y="1368"/>
      <point x="218" y="940"/>
      <point x="218" y="672" type="qcurve" smooth="yes"/>
      <point x="218" y="404"/>
      <point x="416" y="-24"/>
      <point x="540" y="-154" type="qcurve"/>
      <point x="538" y="-156" type="line"/>
      <point x="380" y="-40"/>
      <point x="68" y="414"/>
    </contour>
  </outline>
</glyph>
<glyph name="one" format="1">
  <advance width="840"/>
  <unicode hex="0031"/>
  <outline>
    <contour>
      <point x="84" y="0" type="line"/>
      <point x="84" y="10" type="line"/>
      <point x="342" y="10" type="line"/>
      <point x="342" y="754" type="line"/>
      <point x="340" y="1410" type="line"/>
      <point x="82" y="1390" type="line"/>
      <point x="82" y="1394" type="line"/>
      <point x="512" y="1532" type="line"/>
      <point x="524" y="1517" type="line"/>
      <point x="518" y="754" type="line"/>
      <point x="518" y="10" type="line"/>
      <point x="776" y="10" type="line"/>
      <point x="776" y="0" type="line"/>
    </contour>
  </outline>
</glyph>
<glyph name="two" format="1">
  <advance width="966"/>
  <unicode hex="0032"/>
  <outline>
    <contour>
      <point x="12" y="0" type="line"/>
      <point x="12" y="122" type="line"/>
      <point x="30" y="250"/>
      <point x="210" y="487"/>
      <point x="395" y="616" type="qcurve" smooth="yes"/>
      <point x="547" y="722"/>
      <point x="698" y="968"/>
      <point x="698" y="1158" type="qcurve" smooth="yes"/>
      <point x="698" y="1328"/>
      <point x="543" y="1489"/>
      <point x="426" y="1489" type="qcurve" smooth="yes"/>
      <point x="307" y="1489"/>
      <point x="113" y="1399"/>
      <point x="43" y="1315" type="qcurve"/>
      <point x="43" y="1323" type="line"/>
      <point x="102" y="1399"/>
      <point x="306" y="1520"/>
      <point x="490" y="1520" type="qcurve" smooth="yes"/>
      <point x="666" y="1520"/>
      <point x="896" y="1303"/>
      <point x="896" y="1160" type="qcurve" smooth="yes"/>
      <point x="896" y="972"/>
      <point x="521" y="688"/>
      <point x="402" y="607" type="qcurve" smooth="yes"/>
      <point x="245" y="500"/>
      <point x="58" y="278"/>
      <point x="35" y="177" type="qcurve"/>
      <point x="45" y="166" type="line"/>
      <point x="956" y="166" type="line"/>
      <point x="956" y="0" type="line"/>
    </contour>
  </outline>
</glyph>
<glyph name="three" format="1">
  <advance width="953"/>
  <unicode hex="0033"/>
  <outline>
    <contour>
      <point x="-32" y="215" type="qcurve"/>
      <point x="-32" y="232" type="line"/>
      <point x="54" y="122"/>
      <point x="287" y="34"/>
      <point x="420" y="34" type="qcurve" smooth="yes"/>
      <point x="570" y="34"/>
      <point x="732" y="230"/>
      <point x="732" y="394" type="qcurve" smooth="yes"/>
      <point x="732" y="571"/>
      <point x="515" y="768"/>
      <point x="281" y="768" type="qcurve" smooth="yes"/>
      <point x="256" y="768" type="line"/>
      <point x="248" y="779" type="line"/>
      <point x="304" y="779" type="line" smooth="yes"/>
      <point x="484" y="779"/>
      <point x="703" y="984"/>
      <point x="703" y="1157" type="qcurve" smooth="yes"/>
      <point x="703" y="1309"/>
      <point x="561" y="1467"/>
      <point x="434" y="1467" type="qcurve" smooth="yes"/>
      <point x="319" y="1467"/>
      <point x="120" y="1383"/>
      <point x="43" y="1299" type="qcurve"/>
      <point x="43" y="1307" type="line"/>
      <point x="118" y="1406"/>
      <point x="340" y="1520"/>
      <point x="486" y="1520" type="qcurve" smooth="yes"/>
      <point x="650" y="1520"/>
      <point x="886" y="1337"/>
      <point x="886" y="1184" type="qcurve" smooth="yes"/>
      <point x="886" y="1027"/>
      <point x="709" y="855"/>
      <point x="540" y="800" type="qcurve"/>
      <point x="540" y="793" type="line"/>
      <point x="705" y="766"/>
      <point x="923" y="553"/>
      <point x="923" y="380" type="qcurve" smooth="yes"/>
      <point x="923" y="189"/>
      <point x="654" y="-26"/>
      <point x="466" y="-26" type="qcurve" smooth="yes"/>
      <point x="295" y="-26"/>
      <point x="42" y="106"/>
    </contour>
  </outline>
</glyph>
<glyph name="eight" format="1">
  <advance width="1056"/>
  <unicode hex="0038"/>
  <outline>
    <contour>
      <point x="62" y="358" type="qcurve" smooth="yes"/>
      <point x="62" y="526"/>
      <point x="300" y="753"/>
      <point x="447" y="808" type="qcurve"/>
      <point x="453" y="800" type="line"/>
      <point x="306" y="741"/>
      <point x="107" y="512"/>
      <point x="107" y="350" type="qcurve" smooth="yes"/>
      <point x="107" y="181"/>
      <point x="371" y="-18"/>
      <point x="518" y="-18" type="qcurve" smooth="yes"/>
      <point x="652" y="-18"/>
      <point x="851" y="167"/>
      <point x="851" y="318" type="qcurve" smooth="yes"/>
      <point x="851" y="474"/>
      <point x="650" y="644"/>
      <point x="490" y="724" type="qcurve" smooth="yes"/>
      <point x="303" y="818"/>
      <point x="142" y="1015"/>
      <point x="142" y="1166" type="qcurve" smooth="yes"/>
      <point x="142" y="1330"/>
      <point x="368" y="1520"/>
      <point x="527" y="1520" type="qcurve" smooth="yes"/>
      <point x="691" y="1520"/>
      <point x="895" y="1350"/>
      <point x="895" y="1217" type="qcurve" smooth="yes"/>
      <point x="895" y="1086"/>
      <point x="726" y="887"/>
      <point x="586" y="821" type="qcurve"/>
      <point x="578" y="830" type="line"/>
      <point x="720" y="911"/>
      <point x="836" y="1098"/>
      <point x="836" y="1208" type="qcurve" smooth="yes"/>
      <point x="836" y="1344"/>
      <point x="659" y="1512"/>
      <point x="532" y="1512" type="qcurve" smooth="yes"/>
      <point x="424" y="1512"/>
      <point x="267" y="1370"/>
      <point x="267" y="1241" type="qcurve" smooth="yes"/>
      <point x="267" y="1111"/>
      <point x="410" y="977"/>
      <point x="600" y="880" type="qcurve" smooth="yes"/>
      <point x="779" y="789"/>
      <point x="994" y="562"/>
      <point x="994" y="391" type="qcurve" smooth="yes"/>
      <point x="994" y="226"/>
      <point x="729" y="-26"/>
      <point x="529" y="-26" type="qcurve" smooth="yes"/>
      <point x="332" y="-26"/>
      <point x="62" y="199"/>
    </contour>
  </outline>
</glyph>
<glyph name="question" format="1">
  <advance width="898"/>
  <unicode hex="003F"/>
  <outline>
    <contour>
      <point x="191" y="107" type="qcurve" smooth="yes"/>
      <point x="191" y="159"/>
      <point x="264" y="236"/>
      <point x="321" y="236" type="qcurve" smooth="yes"/>
      <point x="378" y="236"/>
      <point x="451" y="159"/>
      <point x="451" y="107" type="qcurve" smooth="yes"/>
      <point x="451" y="55"/>
      <point x="378" y="-22"/>
      <point x="321" y="-22" type="qcurve" smooth="yes"/>
      <point x="264" y="-22"/>
      <point x="191" y="55"/>
    </contour>
    <contour>
      <point x="38" y="1320" type="line"/>
      <point x="100" y="1420"/>
      <point x="310" y="1540"/>
      <point x="430" y="1540" type="qcurve" smooth="yes"/>
      <point x="627" y="1540"/>
      <point x="878" y="1308"/>
      <point x="878" y="1123" type="qcurve" smooth="yes"/>
      <point x="878" y="930"/>
      <point x="650" y="731"/>
      <point x="480" y="731" type="qcurve" smooth="yes"/>
      <point x="438" y="731"/>
      <point x="349" y="753"/>
      <point x="318" y="767" type="qcurve"/>
      <point x="318" y="395" type="line"/>
      <point x="308" y="395" type="line"/>
      <point x="308" y="726" type="line"/>
      <point x="291" y="780" type="line"/>
      <point x="310" y="791" type="line"/>
      <point x="340" y="786"/>
      <point x="424" y="778"/>
      <point x="460" y="778" type="qcurve" smooth="yes"/>
      <point x="580" y="778"/>
      <point x="690" y="956"/>
      <point x="690" y="1126" type="qcurve" smooth="yes"/>
      <point x="690" y="1296"/>
      <point x="550" y="1490"/>
      <point x="400" y="1490" type="qcurve" smooth="yes"/>
      <point x="300" y="1490"/>
      <point x="120" y="1404"/>
      <point x="44" y="1314" type="qcurve"/>
    </contour>
  </outline>
</glyph>
<glyph name="at" format="1">
  <advance width="1664"/>
  <unicode hex="0040"/>
  <outline>
    <contour>
      <point x="80" y="746" type="qcurve" smooth="yes"/>
      <point x="80" y="1068"/>
      <point x="490" y="1520"/>
      <point x="830" y="1520" type="qcurve" smooth="yes"/>
      <point x="1170" y="1520"/>
      <point x="1602" y="1137"/>
      <point x="1602" y="826" type="qcurve" smooth="yes"/>
      <point x="1602" y="592"/>
      <point x="1376" y="352"/>
      <point x="1230" y="352" type="qcurve" smooth="yes"/>
      <point x="1122" y="352"/>
      <point x="981" y="444"/>
      <point x="982" y="584" type="qcurve" smooth="yes"/>
      <point x="984" y="905" type="line" smooth="yes"/>
      <point x="985" y="1006"/>
      <point x="888" y="1138"/>
      <point x="772" y="1138" type="qcurve" smooth="yes"/>
      <point x="700" y="1138"/>
      <point x="568" y="1088"/>
      <point x="522" y="1035" type="qcurve"/>
      <point x="516" y="1042" type="line"/>
      <point x="560" y="1103"/>
      <point x="720" y="1191"/>
      <point x="835" y="1191" type="qcurve"/>
      <point x="949" y="1191"/>
      <point x="1130" y="1027"/>
      <point x="1132" y="825" type="qcurve" smooth="yes"/>
      <point x="1136" y="376" type="line"/>
      <point x="1160" y="365"/>
      <point x="1202" y="360"/>
      <point x="1230" y="360" type="qcurve" smooth="yes"/>
      <point x="1356" y="360"/>
      <point x="1489" y="587"/>
      <point x="1489" y="809" type="qcurve" smooth="yes"/>
      <point x="1489" y="1120"/>
      <point x="1170" y="1510"/>
      <point x="830" y="1510" type="qcurve" smooth="yes"/>
      <point x="490" y="1510"/>
      <point x="200" y="1060"/>
      <point x="200" y="760" type="qcurve" smooth="yes"/>
      <point x="200" y="430"/>
      <point x="540" y="-20"/>
      <point x="840" y="-20" type="qcurve" smooth="yes"/>
      <point x="980" y="-20"/>
      <point x="1198" y="64"/>
      <point x="1262" y="134" type="qcurve"/>
      <point x="1270" y="127" type="line"/>
      <point x="1206" y="56"/>
      <point x="980" y="-30"/>
      <point x="840" y="-30" type="qcurve" smooth="yes"/>
      <point x="502" y="-30"/>
      <point x="80" y="399"/>
    </contour>
    <contour>
      <point x="457" y="569" type="qcurve" smooth="yes"/>
      <point x="457" y="669"/>
      <point x="724" y="801"/>
      <point x="1010" y="850" type="qcurve"/>
      <point x="1010" y="840" type="line"/>
      <point x="817" y="810"/>
      <point x="610" y="670"/>
      <point x="610" y="560" type="qcurve" smooth="yes"/>
      <point x="610" y="480"/>
      <point x="690" y="370"/>
      <point x="774" y="370" type="qcurve" smooth="yes"/>
      <point x="860" y="370"/>
      <point x="982" y="510"/>
      <point x="982" y="584" type="qcurve"/>
      <point x="988" y="584" type="line"/>
      <point x="990" y="500"/>
      <point x="860" y="340"/>
      <point x="740" y="340" type="qcurve" smooth="yes"/>
      <point x="594" y="340"/>
      <point x="457" y="468"/>
    </contour>
  </outline>
</glyph>
<glyph name="C" format="1">
  <advance width="1446"/>
  <unicode hex="0043"/>
  <outline>
    <contour>
      <point x="80" y="728" type="qcurve" smooth="yes"/>
      <point x="80" y="1068"/>
      <point x="515" y="1520"/>
      <point x="863" y="1520" type="qcurve" smooth="yes"/>
      <point x="1033" y="1520"/>
      <point x="1258" y="1396"/>
      <point x="1299" y="1337" type="qcurve"/>
      <point x="1282" y="1307" type="line"/>
      <point x="1231" y="1394"/>
      <point x="1029" y="1508"/>
      <point x="873" y="1508" type="qcurve" smooth="yes"/>
      <point x="614" y="1508"/>
      <point x="269" y="1113"/>
      <point x="271" y="776" type="qcurve" smooth="yes"/>
      <point x="273" y="430"/>
      <point x="605" y="-8"/>
      <point x="886" y="-8" type="qcurve" smooth="yes"/>
      <point x="1068" y="-8"/>
      <point x="1361" y="145"/>
      <point x="1432" y="249" type="qcurve"/>
      <point x="1440" y="245" type="line"/>
      <point x="1366" y="133"/>
      <point x="1063" y="-30"/>
      <point x="834" y="-30" type="qcurve" smooth="yes"/>
      <point x="522" y="-30"/>
      <point x="80" y="389"/>
    </contour>
    <contour>
      <point x="1282" y="1307" type="line"/>
      <point x="1336" y="1487" type="line"/>
      <point x="1341" y="1487" type="line"/>
      <point x="1341" y="1031" type="line"/>
      <point x="1333" y="1031" type="line"/>
    </contour>
  </outline>
</glyph>
<glyph name="D" format="1">
  <advance width="1590"/>
  <unicode hex="0044"/>
  <outline>
    <contour>
      <point x="82" y="0" type="line"/>
      <point x="82" y="8" type="line"/>
      <point x="290" y="8" type="line"/>
      <point x="292" y="757" type="line"/>
      <point x="290" y="1490" type="line"/>
      <point x="82" y="1490" type="line"/>
      <point x="82" y="1500" type="line"/>
      <point x="718" y="1500" type="line" smooth="yes"/>
      <point x="1074" y="1500"/>
      <point x="1510" y="1119"/>
      <point x="1510" y="777" type="qcurve" smooth="yes"/>
      <point x="1510" y="410"/>
      <point x="1087" y="0"/>
      <point x="713" y="0" type="qcurve" smooth="yes"/>
    </contour>
    <contour>
      <point x="470" y="14" type="line"/>
      <point x="502" y="10"/>
      <point x="652" y="8"/>
      <point x="697" y="8" type="qcurve" smooth="yes"/>
      <point x="1015" y="8"/>
      <point x="1317" y="439"/>
      <point x="1319" y="761" type="qcurve" smooth="yes"/>
      <point x="1321" y="1058"/>
      <point x="976" y="1492"/>
      <point x="676" y="1492" type="qcurve"/>
      <point x="640" y="1492"/>
      <point x="505" y="1492"/>
      <point x="470" y="1485" type="qcurve"/>
      <point x="468" y="757" type="line"/>
    </contour>
  </outline>
</glyph>
<glyph name="M" format="1">
  <advance width="2116"/>
  <unicode hex="004D"/>
  <outline>
    <contour>
      <point x="82" y="0" type="line"/>
      <point x="82" y="8" type="line"/>
      <point x="328" y="8" type="line"/>
      <point x="332" y="754" type="line"/>
      <point x="330" y="1490" type="line"/>
      <point x="82" y="1490" type="line"/>
      <point x="82" y="1500" type="line"/>
      <point x="534" y="1500" type="line"/>
      <point x="821" y="810" type="line"/>
      <point x="1105" y="108" type="line"/>
      <point x="1349" y="759" type="line"/>
      <point x="1642" y="1500" type="line"/>
      <point x="2034" y="1500" type="line"/>
      <point x="2034" y="1490" type="line"/>
      <point x="1826" y="1490" type="line"/>
      <point x="1824" y="754" type="line"/>
      <point x="1826" y="8" type="line"/>
      <point x="2034" y="8" type="line"/>
      <point x="2034" y="0" type="line"/>
      <point x="1408" y="0" type="line"/>
      <point x="1408" y="8" type="line"/>
      <point x="1646" y="8" type="line"/>
      <point x="1648" y="754" type="line"/>
      <point x="1646" y="1478" type="line"/>
      <point x="1365" y="752" type="line"/>
      <point x="1077" y="-8" type="line"/>
      <point x="965" y="-8" type="line"/>
      <point x="655" y="741" type="line"/>
      <point x="346" y="1482" type="line"/>
      <point x="344" y="754" type="line"/>
      <point x="346" y="8" type="line"/>
      <point x="601" y="8" type="line"/>
      <point x="601" y="0" type="line"/>
    </contour>
  </outline>
</glyph>
<glyph name="R" format="1">
  <advance width="1400"/>
  <unicode hex="0052"/>
  <outline>
    <contour>
      <point x="82" y="0" type="line"/>
      <point x="82" y="8" type="line"/>
      <point x="290" y="8" type="line"/>
      <point x="292" y="754" type="line"/>
      <point x="290" y="1490" type="line"/>
      <point x="82" y="1490" type="line"/>
      <point x="82" y="1500" type="line"/>
      <point x="725" y="1500" type="line" smooth="yes"/>
      <point x="937" y="1500"/>
      <point x="1141" y="1328"/>
      <point x="1141" y="1174" type="qcurve" smooth="yes"/>
      <point x="1141" y="1004"/>
      <point x="891" y="790"/>
      <point x="723" y="790" type="qcurve" smooth="yes"/>
      <point x="655" y="790"/>
      <point x="437" y="799"/>
      <point x="380" y="803" type="qcurve"/>
      <point x="380" y="805" type="line"/>
      <point x="544" y="800" type="line"/>
      <point x="646" y="800" type="line"/>
      <point x="802" y="800"/>
      <point x="944" y="1009"/>
      <point x="944" y="1178" type="qcurve" smooth="yes"/>
      <point x="944" y="1325"/>
      <point x="805" y="1494"/>
      <point x="684" y="1494" type="qcurve" smooth="yes"/>
      <point x="481" y="1494" type="line"/>
      <point x="472" y="1481" type="line"/>
      <point x="468" y="754" type="line"/>
      <point x="470" y="8" type="line"/>
      <point x="686" y="8" type="line"/>
      <point x="686" y="0" type="line"/>
    </contour>
    <contour>
      <point x="609" y="796" type="line"/>
      <point x="802" y="805" type="line"/>
      <point x="1198" y="214" type="line" smooth="yes"/>
      <point x="1254" y="130"/>
      <point x="1338" y="8"/>
      <point x="1426" y="8" type="qcurve"/>
      <point x="1426" y="0" type="line"/>
      <point x="1151" y="0" type="line"/>
      <point x="1136" y="13" type="line"/>
    </contour>
  </outline>
</glyph>
<glyph name="S" format="1">
  <advance width="1112"/>
  <unicode hex="0053"/>
  <outline>
    <contour>
      <point x="62" y="0" type="line"/>
      <point x="62" y="464" type="line"/>
      <point x="72" y="464" type="line"/>
      <point x="132" y="172" type="line"/>
      <point x="90" y="0" type="line"/>
    </contour>
    <contour>
      <point x="90" y="1134" type="qcurve" smooth="yes"/>
      <point x="90" y="1297"/>
      <point x="311" y="1520"/>
      <point x="501" y="1520" type="qcurve" smooth="yes"/>
      <point x="639" y="1520"/>
      <point x="832" y="1422"/>
      <point x="890" y="1339" type="qcurve"/>
      <point x="881" y="1325" type="line"/>
      <point x="839" y="1409"/>
      <point x="635" y="1512"/>
      <point x="500" y="1512" type="qcurve" smooth="yes"/>
      <point x="375" y="1512"/>
      <point x="199" y="1351"/>
      <point x="199" y="1222" type="qcurve" smooth="yes"/>
      <point x="199" y="1094"/>
      <point x="409" y="953"/>
      <point x="616" y="878" type="qcurve" smooth="yes"/>
      <point x="799" y="812"/>
      <point x="1060" y="592"/>
      <point x="1060" y="418" type="qcurve" smooth="yes"/>
      <point x="1060" y="231"/>
      <point x="803" y="-23"/>
      <point x="589" y="-23" type="qcurve"/>
      <point x="414" y="-23"/>
      <point x="189" y="81"/>
      <point x="124" y="158" type="qcurve"/>
      <point x="132" y="173" type="line"/>
      <point x="161" y="109"/>
      <point x="401" y="-14"/>
      <point x="588" y="-14" type="qcurve" smooth="yes"/>
      <point x="771" y="-14"/>
      <point x="940" y="188"/>
      <point x="940" y="329" type="qcurve" smooth="yes"/>
      <point x="940" y="472"/>
      <point x="715" y="647"/>
      <point x="504" y="719" type="qcurve" smooth="yes"/>
      <point x="292" y="792"/>
      <point x="90" y="987"/>
    </contour>
    <contour>
      <point x="881" y="1325" type="line"/>
      <point x="922" y="1487" type="line"/>
      <point x="942" y="1487" type="line"/>
      <point x="942" y="1101" type="line"/>
      <point x="932" y="1101" type="line"/>
    </contour>
  </outline>
</glyph>
<glyph name="W" format="1">
  <advance width="2102"/>
  <unicode hex="0057"/>
  <outline>
    <contour>
      <point x="-64.0" y="1490.0" type="line"/>
      <point x="-64.0" y="1500.0" type="line"/>
      <point x="490.0" y="1500.0" type="line"/>
      <point x="490.0" y="1490.0" type="line"/>
      <point x="289.0" y="1490.0" type="line"/>
      <point x="524.0" y="801.0" type="line"/>
      <point x="757.0" y="125.0" type="line"/>
      <point x="913.0" y="623.0" type="line"/>
      <point x="1067.0" y="1114.0" type="line"/>
      <point x="1072.0" y="1103.0" type="line"/>
      <point x="923.0" y="619.0" type="line"/>
      <point x="729.0" y="-8.0" type="line"/>
      <point x="634.0" y="-8.0" type="line"/>
      <point x="365.0" y="740.0" type="line"/>
      <point x="91.0" y="1490.0" type="line"/>
    </contour>
    <contour>
      <point x="684.0" y="1490.0" type="line"/>
      <point x="684.0" y="1500.0" type="line"/>
      <point x="1218.0" y="1500.0" type="line"/>
      <point x="1218.0" y="1490.0" type="line"/>
      <point x="1037.0" y="1490.0" type="line"/>
      <point x="1257.0" y="800.0" type="line"/>
      <point x="1480.0" y="126.0" type="line"/>
      <point x="1713.0" y="833.0" type="line"/>
      <point x="1930.0" y="1490.0" type="line"/>
      <point x="1650.0" y="1490.0" type="line"/>
      <point x="1650.0" y="1500.0" type="line"/>
      <point x="2186.0" y="1500.0" type="line"/>
      <point x="2186.0" y="1490.0" type="line"/>
      <point x="1942.0" y="1490.0" type="line"/>
      <point x="1724" y="830" type="line"/>
      <point x="1451.0" y="-8.0" type="line"/>
      <point x="1349.0" y="-8.0" type="line"/>
      <point x="1101.0" y="735.0" type="line"/>
      <point x="841.0" y="1490.0" type="line"/>
    </contour>
  </outline>
</glyph>
<glyph name="Y" format="1">
  <advance width="1266"/>
  <unicode hex="0059"/>
  <outline>
    <contour>
      <point x="-110" y="1490" type="line"/>
      <point x="-110" y="1500" type="line"/>
      <point x="417" y="1500" type="line"/>
      <point x="417" y="1490" type="line"/>
      <point x="261" y="1490" type="line"/>
      <point x="501" y="1055" type="line"/>
      <point x="711" y="704" type="line"/>
      <point x="887" y="1042" type="line"/>
      <point x="1125" y="1490" type="line"/>
      <point x="867" y="1490" type="line"/>
      <point x="867" y="1500" type="line"/>
      <point x="1376" y="1500" type="line"/>
      <point x="1376" y="1490" type="line"/>
      <point x="1136" y="1490" type="line"/>
      <point x="897" y="1036" type="line"/>
      <point x="723" y="701" type="line"/>
      <point x="725" y="8" type="line"/>
      <point x="943" y="8" type="line"/>
      <point x="943" y="0" type="line"/>
      <point x="324" y="0" type="line"/>
      <point x="324" y="8" type="line"/>
      <point x="545" y="8" type="line"/>
      <point x="547" y="647" type="line"/>
      <point x="355" y="976" type="line"/>
      <point x="53" y="1490" type="line"/>
    </contour>
  </outline>
</glyph>
<glyph name="Z" format="1">
  <advance width="1166"/>
  <unicode hex="005A"/>
  <outline>
    <contour>
      <point x="70" y="0" type="line"/>
      <point x="48" y="54" type="line"/>
      <point x="494" y="784" type="line"/>
      <point x="895" y="1471" type="line"/>
      <point x="883" y="1490" type="line"/>
      <point x="202" y="1490" type="line"/>
      <point x="88" y="1104" type="line"/>
      <point x="80" y="1104" type="line"/>
      <point x="80" y="1500" type="line"/>
      <point x="1081" y="1500" type="line"/>
      <point x="1081" y="1449" type="line"/>
      <point x="630" y="704" type="line"/>
      <point x="219" y="26" type="line"/>
      <point x="224" y="10" type="line"/>
      <point x="984" y="10" type="line"/>
      <point x="1138" y="378" type="line"/>
      <point x="1146" y="378" type="line"/>
      <point x="1106" y="0" type="line"/>
    </contour>
  </outline>
</glyph>
<glyph name="grave" format="1">
  <advance width="1024"/>
  <unicode hex="0060"/>
  <outline>
    <contour>
      <point x="344" y="1326" type="qcurve" smooth="yes"/>
      <point x="344" y="1340"/>
      <point x="366" y="1361"/>
      <point x="382" y="1361" type="qcurve" smooth="yes"/>
      <point x="398" y="1361"/>
      <point x="428" y="1342"/>
      <point x="444" y="1322" type="qcurve" smooth="yes"/>
      <point x="659" y="1060" type="line"/>
      <point x="651" y="1060" type="line"/>
      <point x="378" y="1274" type="line" smooth="yes"/>
      <point x="364" y="1285"/>
      <point x="344" y="1312"/>
    </contour>
  </outline>
</glyph>
<glyph name="b" format="1">
  <advance width="1158"/>
  <unicode hex="0062"/>
  <outline>
    <contour>
      <point x="0" y="1490" type="line"/>
      <point x="0" y="1500" type="line"/>
      <point x="325" y="1500" type="line"/>
      <point x="340" y="1498" type="line"/>
      <point x="337" y="1470" type="line"/>
      <point x="334" y="428" type="line"/>
      <point x="336" y="168" type="line"/>
      <point x="176" y="0" type="line"/>
      <point x="178" y="0" type="line"/>
      <point x="178" y="427" type="line"/>
      <point x="167" y="1490" type="line"/>
    </contour>
    <contour>
      <point x="292" y="139" type="qcurve"/>
      <point x="330" y="192" type="line"/>
      <point x="362" y="114"/>
      <point x="512" y="-6"/>
      <point x="615" y="-6" type="qcurve" smooth="yes"/>
      <point x="751" y="-6"/>
      <point x="906" y="277"/>
      <point x="906" y="520" type="qcurve" smooth="yes"/>
      <point x="906" y="772"/>
      <point x="752" y="1004"/>
      <point x="623" y="1004" type="qcurve" smooth="yes"/>
      <point x="532" y="1004"/>
      <point x="369" y="907"/>
      <point x="326" y="832" type="qcurve"/>
      <point x="321" y="839" type="line"/>
      <point x="364" y="916"/>
      <point x="529" y="1020"/>
      <point x="631" y="1020" type="qcurve" smooth="yes"/>
      <point x="826" y="1020"/>
      <point x="1090" y="754"/>
      <point x="1090" y="530" type="qcurve" smooth="yes"/>
      <point x="1090" y="286"/>
      <point x="828" y="-15"/>
      <point x="624" y="-15" type="qcurve" smooth="yes"/>
      <point x="506" y="-15"/>
      <point x="323" y="85"/>
    </contour>
  </outline>
</glyph>
<glyph name="g" format="1">
  <advance width="1048"/>
  <unicode hex="0067"/>
  <outline>
    <contour>
      <point x="24" y="-270" type="qcurve" smooth="yes"/>
      <point x="24" y="-192"/>
      <point x="122" y="-75"/>
      <point x="189" y="-37" type="qcurve"/>
      <point x="195" y="-46" type="line"/>
      <point x="141" y="-88"/>
      <point x="74" y="-193"/>
      <point x="74" y="-272" type="qcurve" smooth="yes"/>
      <point x="74" y="-371"/>
      <point x="299" y="-509"/>
      <point x="523" y="-509" type="qcurve" smooth="yes"/>
      <point x="754" y="-509"/>
      <point x="964" y="-386"/>
      <point x="964" y="-277" type="qcurve" smooth="yes"/>
      <point x="964" y="-192"/>
      <point x="821" y="-124"/>
      <point x="535" y="-108" type="qcurve" smooth="yes"/>
      <point x="320" y="-96"/>
      <point x="84" y="-7"/>
      <point x="84" y="94" type="qcurve" smooth="yes"/>
      <point x="84" y="196"/>
      <point x="206" y="318"/>
      <point x="287" y="345" type="qcurve"/>
      <point x="295" y="335" type="line"/>
      <point x="223" y="303"/>
      <point x="163" y="239"/>
      <point x="163" y="188" type="qcurve" smooth="yes"/>
      <point x="163" y="122"/>
      <point x="319" y="61"/>
      <point x="536" y="54" type="qcurve" smooth="yes"/>
      <point x="814" y="45"/>
      <point x="1057" y="-59"/>
      <point x="1057" y="-179" type="qcurve" smooth="yes"/>
      <point x="1057" y="-320"/>
      <point x="817" y="-518"/>
      <point x="506" y="-518" type="qcurve" smooth="yes"/>
      <point x="273" y="-518"/>
      <point x="24" y="-378"/>
    </contour>
    <contour>
      <point x="105" y="650" type="qcurve" smooth="yes"/>
      <point x="105" y="812"/>
      <point x="331" y="1022"/>
      <point x="514" y="1022" type="qcurve" smooth="yes"/>
      <point x="698" y="1022"/>
      <point x="926" y="827"/>
      <point x="926" y="655" type="qcurve" smooth="yes"/>
      <point x="926" y="493"/>
      <point x="701" y="260"/>
      <point x="519" y="260" type="qcurve" smooth="yes"/>
      <point x="335" y="260"/>
      <point x="105" y="475"/>
    </contour>
    <contour>
      <point x="280" y="673" type="qcurve" smooth="yes"/>
      <point x="280" y="478"/>
      <point x="409" y="269"/>
      <point x="514" y="269" type="qcurve" smooth="yes"/>
      <point x="627" y="269"/>
      <point x="749" y="461"/>
      <point x="749" y="659" type="qcurve" smooth="yes"/>
      <point x="749" y="823"/>
      <point x="621" y="1014"/>
      <point x="516" y="1014" type="qcurve" smooth="yes"/>
      <point x="404" y="1014"/>
      <point x="280" y="843"/>
    </contour>
    <contour>
      <point x="674" y="950" type="line"/>
      <point x="659" y="980" type="line"/>
      <point x="1092" y="980" type="line"/>
      <point x="1092" y="970" type="line"/>
    </contour>
  </outline>
</glyph>
<glyph name="i" format="1">
  <advance width="639"/>
  <unicode hex="0069"/>
  <outline>
    <contour>
      <point x="77" y="0" type="line"/>
      <point x="77" y="8" type="line"/>
      <point x="245" y="8" type="line"/>
      <point x="247" y="527" type="line"/>
      <point x="240" y="990" type="line"/>
      <point x="72" y="990" type="line"/>
      <point x="72" y="1000" type="line"/>
      <point x="383" y="1005" type="line"/>
      <point x="399" y="1005" type="line"/>
      <point x="420" y="985" type="line"/>
      <point x="413" y="527" type="line"/>
      <point x="415" y="8" type="line"/>
      <point x="573" y="8" type="line"/>
      <point x="573" y="0" type="line"/>
    </contour>
    <contour>
      <point x="215" y="1297" type="qcurve" smooth="yes"/>
      <point x="215" y="1349"/>
      <point x="272" y="1405"/>
      <point x="325" y="1405" type="qcurve" smooth="yes"/>
      <point x="375" y="1405"/>
      <point x="435" y="1345"/>
      <point x="435" y="1297" type="qcurve" smooth="yes"/>
      <point x="435" y="1245"/>
      <point x="378" y="1189"/>
      <point x="325" y="1189" type="qcurve" smooth="yes"/>
      <point x="275" y="1189"/>
      <point x="215" y="1249"/>
    </contour>
  </outline>
</glyph>
<glyph name="w" format="1">
  <advance width="1593"/>
  <unicode hex="0077"/>
  <outline>
    <contour>
      <point x="-60" y="992" type="line"/>
      <point x="-60" y="1000" type="line"/>
      <point x="358" y="1000" type="line"/>
      <point x="358" y="992" type="line"/>
      <point x="233" y="992" type="line"/>
      <point x="401" y="522" type="line"/>
      <point x="565" y="88" type="line"/>
      <point x="690" y="421" type="line"/>
      <point x="821" y="755" type="line"/>
      <point x="828" y="747" type="line"/>
      <point x="697" y="415" type="line"/>
      <point x="542" y="-8" type="line"/>
      <point x="444" y="-8" type="line"/>
      <point x="265" y="477" type="line"/>
      <point x="64" y="992" type="line"/>
    </contour>
    <contour>
      <point x="507" y="992" type="line"/>
      <point x="507" y="1000" type="line"/>
      <point x="924" y="1000" type="line"/>
      <point x="924" y="992" type="line"/>
      <point x="798" y="992" type="line"/>
      <point x="982" y="475" type="line"/>
      <point x="1126" y="90" type="line"/>
      <point x="1266" y="493" type="line"/>
      <point x="1437" y="992" type="line"/>
      <point x="1230" y="992" type="line"/>
      <point x="1230" y="1000" type="line"/>
      <point x="1635" y="1000" type="line"/>
      <point x="1635" y="992" type="line"/>
      <point x="1451" y="992" type="line"/>
      <point x="1275" y="489" type="line"/>
      <point x="1109" y="-8" type="line"/>
      <point x="1011" y="-8" type="line"/>
      <point x="849" y="432" type="line"/>
      <point x="631" y="992" type="line"/>
    </contour>
  </outline>
</glyph>
<glyph name="braceleft" format="1">
  <advance width="693"/>
  <unicode hex="007B"/>
  <outline>
    <contour>
      <point x="60" y="531" type="line"/>
      <point x="60" y="539" type="line"/>
      <point x="190" y="549" type="line" smooth="yes"/>
      <point x="260" y="554"/>
      <point x="350" y="620"/>
      <point x="350" y="716" type="qcurve" smooth="yes"/>
      <point x="350" y="820"/>
      <point x="186" y="1080"/>
      <point x="186" y="1200" type="qcurve" smooth="yes"/>
      <point x="186" y="1340"/>
      <point x="357" y="1510"/>
      <point x="513" y="1510" type="qcurve" smooth="yes"/>
      <point x="560" y="1510"/>
      <point x="646" y="1503"/>
      <point x="683" y="1500" type="qcurve"/>
      <point x="683" y="1490" type="line"/>
      <point x="650" y="1492"/>
      <point x="600" y="1492"/>
      <point x="570" y="1492" type="qcurve" smooth="yes"/>
      <point x="440" y="1492"/>
      <point x="346" y="1340"/>
      <point x="346" y="1216" type="qcurve" smooth="yes"/>
      <point x="346" y="1080"/>
      <point x="452" y="860"/>
      <point x="452" y="780" type="qcurve" smooth="yes"/>
      <point x="452" y="690"/>
      <point x="387" y="571"/>
      <point x="336" y="550" type="qcurve"/>
      <point x="399" y="516"/>
      <point x="452" y="384"/>
      <point x="452" y="314" type="qcurve" smooth="yes"/>
      <point x="452" y="223"/>
      <point x="336" y="-78"/>
      <point x="336" y="-180" type="qcurve" smooth="yes"/>
      <point x="336" y="-340"/>
      <point x="420" y="-476"/>
      <point x="550" y="-476" type="qcurve" smooth="yes"/>
      <point x="580" y="-476"/>
      <point x="630" y="-476"/>
      <point x="678" y="-474" type="qcurve"/>
      <point x="678" y="-484" type="line"/>
      <point x="640" y="-488"/>
      <point x="550" y="-495"/>
      <point x="508" y="-495" type="qcurve" smooth="yes"/>
      <point x="352" y="-495"/>
      <point x="176" y="-327"/>
      <point x="176" y="-168" type="qcurve" smooth="yes"/>
      <point x="176" y="-50"/>
      <point x="340" y="370"/>
      <point x="340" y="500" type="qcurve" smooth="yes"/>
      <point x="340" y="531" type="line"/>
    </contour>
  </outline>
</glyph>
<glyph name="bar" format="1">
  <advance width="604"/>
  <unicode hex="007C"/>
  <outline>
    <contour>
      <point x="289" y="-510" type="line"/>
      <point x="291" y="-58" type="line"/>
      <point x="294" y="250" type="line"/>
      <point x="294" y="830" type="line"/>
      <point x="291" y="1138" type="line"/>
      <point x="289" y="1510" type="line"/>
      <point x="315" y="1520" type="line"/>
      <point x="313" y="1138" type="line"/>
      <point x="310" y="830" type="line"/>
      <point x="310" y="250" type="line"/>
      <point x="313" y="-58" type="line"/>
      <point x="315" y="-500" type="line"/>
    </contour>
  </outline>
</glyph>
<glyph name="braceright" format="1">
  <advance width="693"/>
  <unicode hex="007D"/>
  <outline>
    <contour>
      <point x="633" y="531" type="line"/>
      <point x="353" y="531" type="line"/>
      <point x="353" y="500" type="line" smooth="yes"/>
      <point x="353" y="370"/>
      <point x="517" y="-50"/>
      <point x="517" y="-168" type="qcurve" smooth="yes"/>
      <point x="517" y="-327"/>
      <point x="341" y="-495"/>
      <point x="185" y="-495" type="qcurve" smooth="yes"/>
      <point x="143" y="-495"/>
      <point x="53" y="-488"/>
      <point x="15" y="-484" type="qcurve"/>
      <point x="15" y="-474" type="line"/>
      <point x="63" y="-476"/>
      <point x="113" y="-476"/>
      <point x="143" y="-476" type="qcurve" smooth="yes"/>
      <point x="273" y="-476"/>
      <point x="357" y="-340"/>
      <point x="357" y="-180" type="qcurve" smooth="yes"/>
      <point x="357" y="-78"/>
      <point x="241" y="223"/>
      <point x="241" y="314" type="qcurve" smooth="yes"/>
      <point x="241" y="384"/>
      <point x="294" y="516"/>
      <point x="357" y="550" type="qcurve"/>
      <point x="306" y="571"/>
      <point x="241" y="690"/>
      <point x="241" y="780" type="qcurve" smooth="yes"/>
      <point x="241" y="860"/>
      <point x="347" y="1080"/>
      <point x="347" y="1216" type="qcurve" smooth="yes"/>
      <point x="347" y="1340"/>
      <point x="253" y="1492"/>
      <point x="123" y="1492" type="qcurve" smooth="yes"/>
      <point x="93" y="1492"/>
      <point x="43" y="1492"/>
      <point x="10" y="1490" type="qcurve"/>
      <point x="10" y="1500" type="line"/>
      <point x="47" y="1503"/>
      <point x="133" y="1510"/>
      <point x="180" y="1510" type="qcurve" smooth="yes"/>
      <point x="336" y="1510"/>
      <point x="507" y="1340"/>
      <point x="507" y="1200" type="qcurve" smooth="yes"/>
      <point x="507" y="1080"/>
      <point x="343" y="820"/>
      <point x="343" y="716" type="qcurve" smooth="yes"/>
      <point x="343" y="620"/>
      <point x="433" y="554"/>
      <point x="503" y="549" type="qcurve" smooth="yes"/>
      <point x="633" y="539" type="line"/>
    </contour>
  </outline>
</glyph>
